<svg xmlns="http://www.w3.org/2000/svg"
width="150" height="50"><path fill="#333" d="M25.26 22.19L27.05 22.19Q29.35 22.19 30.21 21.54Q31.83 20.29 31.83 17.79Q31.83 13.36 27.81 13.36Q24.47 13.36 23.71 17.14L20.86 17.14Q21.25 14.77 22.52 13.22Q24.45 10.92 27.81 10.92Q30.62 10.92 32.45 12.54Q34.61 14.44 34.61 17.69Q34.61 22.06 30.69 23.42Q35.42 25.25 35.42 30.08Q35.42 33.17 33.66 35.16Q31.55 37.57 27.86 37.57Q24.40 37.57 22.34 35.20Q20.83 33.46 20.51 30.40L23.46 30.40Q23.83 35.09 27.86 35.09Q29.72 35.09 30.99 34.04Q32.57 32.68 32.57 30.08Q32.57 24.49 27.05 24.49L25.26 24.49L25.26 22.19Z"
transform="matrix(0.99 0 -0.1227845609029046 0.99 -1 0)"/><path fill="#333" d="M52.01 31.54Q52.48 35.14 56.21 35.14Q59.96 35.14 59.96 32.51Q59.96 31.24 59.09 30.54Q58.18 29.78 55.82 28.96L55.31 28.76Q52.71 27.87 51.54 26.97Q49.85 25.65 49.85 23.79Q49.85 21.55 51.80 20.20Q53.49 19.04 55.89 19.04Q61.33 19.04 62.19 23.98L59.39 23.98Q58.95 21.34 55.86 21.34Q52.55 21.34 52.55 23.68Q52.55 25.21 56.98 26.78Q59.48 27.65 60.57 28.45Q62.70 29.96 62.70 32.44Q62.70 34.84 60.80 36.25Q59.01 37.55 56.14 37.55Q49.87 37.55 49.16 31.54L52.01 31.54Z"
transform="matrix(1.02 0 -0.2679491924311227 1.02 -1 2)"/><path fill="#444" d="M77.85 11.64L80.52 11.64L80.52 27.09L86.81 19.74L90.17 19.74L84.74 25.83L91.58 36.85L88.22 36.85L83.07 27.72L80.52 30.47L80.52 36.85L77.85 36.85L77.85 11.64Z"
transform="matrix(1.01 0 -0.14054083470239145 1.01 -1 -3)"/><path fill="#444" d="M104.83 19.74L107.85 19.74L112 33.56L116.13 19.74L119.15 19.74L113.48 36.85L110.52 36.85L104.83 19.74Z"
transform="matrix(0.98 0 -0.0524077792830412 0.98 -1 1)"/><path d="M12 16 C66 36,94 17,140 26"
stroke="#888" fill="transparent"/><path d="M11 13 C98 22,97 13,130 38"
stroke="#888" fill="transparent"/><path d="M17 26 C58 39,78 24,143 39"
stroke="#333" fill="transparent"/><filter id="n" x="0" y="0"><feTurbulence baseFrequency=".7,.07" seed="145"/><feColorMatrix type="luminanceToAlpha"/></filter><rect width="150" height="50" filter="url(#n)" opacity="0.2"/></svg>