<svg xmlns="http://www.w3.org/2000/svg" width="150" height="50"><path fill="#111" d="M26.61 29.11Q24.78 29.00 23.55 30.42Q22.31 31.85 22.12 33.76Q21.89 35.81 22.98 36.78Q24.06 37.75 26.15 37.64Q28.25 37.49 29.35 36.80Q30.49 35.70 30.49 34.14Q30.49 33.76 30.42 33.38Q30.49 31.70 29.39 30.35Q28.29 29.00 26.61 29.11M26.19 40.23Q21.81 40.23 20.41 39.47Q19.38 38.70 19.19 36.99Q19.15 36.31 19.19 35.58Q19.30 34.59 19.30 34.14Q19.76 31.28 19.91 30.60Q20.37 28.65 21.21 27.25Q23.87 22.87 29.81 16.51Q32.47 16.21 34.68 15.41Q27.83 22.87 24.63 27.09Q25.62 26.60 26.92 26.60Q30.23 26.60 31.75 28.54Q33.08 30.18 33.43 33.72Q33.50 34.44 33.50 35.05Q33.50 38.17 31.29 39.24Q30.08 39.85 26.19 40.23M28.48 42.63Q29.77 42.59 31.75 42.66Q33.39 42.74 34.95 42.02Q36.05 41.22 36.05 39.43Q36.05 38.93 35.88 37.94Q35.71 36.95 35.71 36.50Q34.83 31.78 33.24 29.87Q33.16 29.76 33.01 29.53L32.70 29.30L32.63 29.26Q32.28 28.77 31.67 27.82Q30.76 26.87 28.78 26.41Q30.00 24.81 32.97 21.12L37.19 15.83Q35.63 16.70 33.24 17.46Q34.15 16.47 35.94 14.49Q33.54 15.56 29.66 16.13Q23.95 22.03 20.98 26.98Q19.45 29.49 18.88 35.74Q18.81 36.31 18.88 37.26Q18.96 39.01 20.06 39.92Q20.44 40.08 20.41 40.11Q20.79 41.03 21.59 41.45Q23.03 42.13 24.97 42.32Q24.97 42.32 28.48 42.63M28.25 31.40Q28.82 31.28 29.77 31.78Q30.11 32.73 30.11 33.38Q30.30 35.24 29.35 36.23Q28.29 36.95 26.19 37.26Q24.75 37.26 24.21 36.99Q24.02 36.54 24.02 36.23Q23.79 32.96 26.73 31.66Q27.49 31.32 28.25 31.40Z"/><path fill="#222" d="M49.59 41.10Q52.75 36.84 59.45 28.92Q53.55 29.15 49.78 27.78Q49.09 26.33 48.33 24.92Q52.44 26.45 56.90 26.48Q61.35 26.52 65.54 25.46Q65.12 26.10 64.85 26.64Q62.34 28.88 59.52 32.50L54.61 38.70Q56.86 38.51 59.10 38.59Q61.27 38.63 63.52 39.01Q63.67 39.62 64.40 41.64Q60.67 40.80 56.67 40.91Q52.71 41.03 49.05 42.21Q49.13 42.06 49.59 41.10M48.48 42.82Q49.28 42.51 50.88 42.09Q50.62 42.28 50.20 42.70Q49.97 43.27 49.36 44.42Q54.08 43.08 59.07 43.24Q64.02 43.39 68.58 45.25Q67.14 43.39 66.22 41.33Q65.46 41.03 64.40 40.80Q64.21 40.08 63.83 38.63Q62.30 38.32 58.72 38.21Q61.08 34.86 66.11 28.50Q66.38 27.78 67.06 26.45L64.78 27.21Q64.85 27.13 65.01 27.02L65.20 26.83Q65.65 25.76 66.22 24.81Q61.58 26.18 56.86 26.10Q52.06 26.03 47.57 24.20Q48.75 26.07 49.55 28.12Q50.39 28.43 51.45 28.69Q51.64 29.38 51.95 30.82Q53.55 31.09 56.86 31.24Q54.46 34.56 49.28 40.99Q49.05 41.60 48.48 42.82Z"/><path fill="#222" d="M87.07 18.45Q86.34 18.83 86.19 19.63L86.19 24.77Q87.33 24.77 89.54 24.51Q89.50 24.92 89.47 25.76Q89.47 26.56 89.47 27.02L87.87 27.09Q87.07 27.17 86.19 27.17Q86.19 31.36 86.12 39.73Q83.91 39.81 82.42 40.49Q83.49 34.33 83.38 27.09Q82.73 27.06 81.43 26.79Q81.43 25.80 81.24 23.86Q82.35 24.35 83.30 24.54Q83.26 23.90 82.96 21.42Q82.73 19.37 82.73 18.41Q82.73 16.74 84.14 16.17Q84.97 15.83 89.81 14.99Q90.61 14.84 91.45 14.72Q91.22 15.48 91.07 16.36L90.76 17.92Q90.11 17.77 89.62 17.88Q88.97 17.84 87.07 18.45M92.51 19.59Q92.85 17.39 93.46 14.84Q92.85 15.18 91.56 15.79L91.94 14.07Q90.72 14.26 88.25 14.80Q87.07 14.87 83.87 15.79Q82.31 16.21 82.31 18.07Q82.31 18.38 82.39 18.72Q82.61 20.05 82.73 21.38L82.92 24.05Q81.55 23.67 80.90 23.21Q81.01 24.16 81.05 25.19L81.17 27.17Q81.89 27.36 82.69 27.44L82.69 29.53L83.07 29.53Q82.96 35.66 81.97 41.10Q82.96 40.61 84.14 40.34L83.95 42.40Q85.20 42.13 86.50 42.09Q87.72 42.06 88.97 42.32Q88.13 37.33 88.13 29.38Q89.24 29.38 91.33 29.45L91.33 27.59Q91.33 26.64 91.37 25.69Q90.87 25.76 89.81 26.03Q89.81 25.34 89.92 24.01Q89.09 24.24 88.29 24.31Q88.29 22.91 88.40 21.50Q88.55 20.85 89.09 20.51Q90.04 19.82 90.86 19.75Q91.67 19.67 92.51 19.59Z"/><path d="M6 30 C69 40,71 3,149 22" stroke="#111" fill="none"/><path fill="#111" d="M112.86 36.92Q114.00 37.83 115.41 37.68Q118.34 37.87 118.99 34.52Q119.60 31.36 119.60 27.97L119.60 25.38Q119.60 24.12 119.26 22.87Q118.04 25.19 116.06 29.95Q114.08 34.71 112.86 36.92M117.89 20.43Q116.74 19.63 115.41 19.63Q113.93 19.48 112.82 20.39Q111.72 21.31 111.53 22.79Q111.19 24.16 111.15 25.65Q111.15 25.65 111.15 28.50Q111.15 30.86 111.60 34.48Q113.51 29.72 117.89 20.43M119.45 39.24Q117.70 40.15 115.37 40.15L113.74 40.15Q110.50 40.15 109.36 38.44Q108.56 36.27 108.48 33.34Q108.44 31.59 108.37 28.12Q108.33 26.90 108.18 23.86Q108.10 21.57 108.41 19.59Q108.90 16.66 113.24 16.43Q114.00 16.40 115.34 16.43Q121.01 16.59 122.07 20.05Q122.68 21.95 122.64 23.82Q122.57 28.81 122.49 30.03Q122.30 33.83 122.00 35.13Q121.35 38.25 119.45 39.24M124.40 39.01Q124.62 36.23 124.59 34.44L124.51 29.83Q124.43 26.83 123.90 21.31Q123.37 19.48 122.07 18.72Q120.51 16.17 115.34 16.02Q114.46 15.98 113.13 16.02Q108.60 16.09 108.10 19.21Q107.72 21.54 107.84 23.63Q108.18 28.01 108.14 31.36Q108.10 35.05 108.22 36.08Q108.60 39.16 110.12 39.96Q111.60 42.17 115.60 42.44Q119.18 42.66 119.83 42.63Q122.68 42.47 123.82 40.87Q124.32 40.19 124.40 39.01M115.79 37.30Q116.48 35.85 117.54 33.15L119.26 28.92Q119.22 30.56 118.84 33.91Q118.19 36.80 115.79 37.30M113.81 25Q114.27 23.21 114.95 22.64Q115.41 22.22 116.71 22.03Q114.99 25.69 113.13 30.33Q113.13 27.63 113.81 25Z"/></svg>